<?xml version="1.0" encoding="utf-8"?>
<!-- Generator: Adobe Illustrator 16.0.0, SVG Export Plug-In . SVG Version: 6.00 Build 0)  -->
<!DOCTYPE svg PUBLIC "-//W3C//DTD SVG 1.1//EN" "http://www.w3.org/Graphics/SVG/1.1/DTD/svg11.dtd">
<svg version="1.1" id="圖層_1" xmlns="http://www.w3.org/2000/svg" xmlns:xlink="http://www.w3.org/1999/xlink" x="0px" y="0px"
	 width="141.73px" height="85.04px" viewBox="0 0 141.73 85.04" enable-background="new 0 0 141.73 85.04" xml:space="preserve">
<polyline points="2.057,84.879 33.715,44.763 71.164,69.62 109.384,21.874 131.003,23.842 71.936,83.649 32.171,55.1 "/>
<path fill="none" stroke="#000000" stroke-miterlimit="10" d="M106.626,0.61"/>
<polygon points="96.433,21.874 138.352,0.293 128.956,42.574 "/>
<g>
	<path fill="#FFFFFF" d="M2.34,38.659h17.732v4.986H9.543v4.053h8.992v4.688H9.543v9.482H2.34V38.659z"/>
	<path fill="#FFFFFF" d="M23.744,38.659h6.445v4.384h-6.445V38.659z M23.744,45.054h6.445v16.813h-6.445V45.054z"/>
	<path fill="#FFFFFF" d="M34.305,45.054h6.001v2.739c0.896-1.119,1.805-1.918,2.723-2.398c0.917-0.479,2.037-0.721,3.355-0.721
		c1.784,0,3.181,0.531,4.188,1.592c1.007,1.063,1.512,2.699,1.512,4.917V61.87h-6.477v-9.246c0-1.056-0.195-1.803-0.585-2.24
		c-0.392-0.438-0.939-0.656-1.646-0.656c-0.781,0-1.416,0.296-1.9,0.886c-0.486,0.591-0.729,1.653-0.729,3.183v8.074h-6.443V45.054
		H34.305z"/>
	<path fill="#FFFFFF" d="M61.807,50.502l-6.16-0.65c0.23-1.075,0.566-1.924,1.005-2.54c0.438-0.618,1.068-1.153,1.892-1.606
		c0.591-0.328,1.403-0.58,2.438-0.761c1.034-0.18,2.152-0.271,3.355-0.271c1.932,0,3.483,0.107,4.655,0.326
		c1.171,0.215,2.147,0.666,2.929,1.353c0.547,0.476,0.981,1.147,1.296,2.019c0.315,0.871,0.476,1.703,0.476,2.494v7.426
		c0,0.791,0.05,1.412,0.148,1.859c0.102,0.449,0.319,1.021,0.658,1.719h-6.046c-0.243-0.434-0.399-0.763-0.475-0.99
		c-0.074-0.227-0.149-0.582-0.223-1.067c-0.844,0.812-1.684,1.394-2.518,1.742c-1.14,0.464-2.465,0.694-3.973,0.694
		c-2.005,0-3.528-0.465-4.568-1.393c-1.04-0.93-1.56-2.074-1.56-3.436c0-1.277,0.375-2.33,1.125-3.152
		c0.749-0.822,2.131-1.436,4.147-1.836c2.417-0.485,3.984-0.825,4.702-1.021c0.717-0.195,1.477-0.451,2.28-0.768
		c0-0.792-0.165-1.348-0.492-1.662c-0.328-0.316-0.903-0.477-1.727-0.477c-1.056,0-1.847,0.17-2.375,0.509
		C62.392,49.278,62.06,49.773,61.807,50.502z M67.396,53.889c-0.888,0.316-1.812,0.598-2.772,0.839
		c-1.309,0.349-2.138,0.692-2.485,1.028C61.78,56.107,61.6,56.5,61.6,56.945c0,0.507,0.177,0.919,0.53,1.241
		c0.354,0.322,0.873,0.482,1.56,0.482c0.717,0,1.386-0.172,2.002-0.521c0.617-0.349,1.056-0.772,1.313-1.274
		c0.26-0.502,0.39-1.151,0.39-1.955L67.396,53.889L67.396,53.889z"/>
	<path fill="#FFFFFF" d="M77.558,45.054h6.001v2.739c0.896-1.119,1.804-1.918,2.722-2.398c0.919-0.479,2.037-0.721,3.356-0.721
		c1.783,0,3.18,0.531,4.188,1.592c1.008,1.063,1.513,2.699,1.513,4.917V61.87H88.86v-9.246c0-1.056-0.195-1.803-0.584-2.24
		c-0.394-0.438-0.94-0.656-1.646-0.656c-0.78,0-1.415,0.296-1.899,0.886c-0.486,0.591-0.729,1.653-0.729,3.183v8.074h-6.442V45.054z
		"/>
	<path fill="#FFFFFF" d="M111.724,55.284l6.127,0.695c-0.337,1.277-0.893,2.383-1.662,3.316c-0.771,0.935-1.756,1.66-2.953,2.177
		c-1.198,0.519-2.721,0.774-4.567,0.774c-1.784,0-3.269-0.166-4.457-0.498c-1.186-0.332-2.209-0.869-3.063-1.611
		c-0.855-0.744-1.525-1.615-2.01-2.619c-0.486-1.002-0.729-2.329-0.729-3.984c0-1.729,0.294-3.17,0.886-4.318
		c0.435-0.846,1.023-1.602,1.773-2.271c0.749-0.669,1.521-1.168,2.313-1.492c1.257-0.519,2.866-0.777,4.829-0.777
		c2.742,0,4.836,0.492,6.276,1.475c1.439,0.979,2.451,2.417,3.033,4.307l-6.064,0.808c-0.189-0.718-0.536-1.259-1.038-1.622
		c-0.5-0.365-1.174-0.549-2.019-0.549c-1.065,0-1.929,0.384-2.588,1.148c-0.66,0.764-0.989,1.92-0.989,3.469
		c0,1.379,0.325,2.428,0.981,3.144c0.652,0.718,1.486,1.075,2.501,1.075c0.845,0,1.554-0.215,2.13-0.648
		C111.008,56.844,111.438,56.18,111.724,55.284z"/>
	<path fill="#FFFFFF" d="M139.478,55.06H126.56c0.113,1.037,0.394,1.806,0.838,2.312c0.623,0.729,1.436,1.094,2.438,1.094
		c0.633,0,1.234-0.157,1.805-0.475c0.349-0.199,0.723-0.556,1.125-1.062l6.349,0.587c-0.972,1.688-2.144,2.898-3.515,3.632
		c-1.372,0.733-3.342,1.101-5.904,1.101c-2.229,0-3.98-0.313-5.258-0.94c-1.276-0.629-2.336-1.625-3.175-2.992
		c-0.84-1.366-1.26-2.976-1.26-4.821c0-2.629,0.844-4.756,2.526-6.381c1.682-1.626,4.008-2.438,6.973-2.438
		c2.406,0,4.309,0.365,5.701,1.094c1.395,0.729,2.454,1.783,3.183,3.167c0.729,1.381,1.093,3.183,1.093,5.397V55.06L139.478,55.06z
		 M132.923,51.975c-0.126-1.246-0.462-2.139-1.005-2.678c-0.545-0.537-1.259-0.807-2.146-0.807c-1.024,0-1.841,0.405-2.453,1.219
		c-0.393,0.506-0.64,1.262-0.745,2.266H132.923z"/>
</g>
</svg>
